<?xml version="1.0" encoding="UTF-8"?>
<svg width="13px" height="21px" viewBox="0 0 13 21" version="1.1" xmlns="http://www.w3.org/2000/svg" xmlns:xlink="http://www.w3.org/1999/xlink">
    <!-- Generator: Sketch 48.2 (47327) - http://www.bohemiancoding.com/sketch -->
    <title>right-arrow</title>
    <desc>Created with Sketch.</desc>
    <defs></defs>
    <g id="my-work" stroke="none" stroke-width="1" fill="none" fill-rule="evenodd" transform="translate(-832.000000, -566.000000)">
        <g id="Group-3" transform="translate(595.000000, 566.000000)" fill="#00D646" fill-rule="nonzero">
            <g id="right-arrow" transform="translate(237.837838, 0.000000)">
                <path d="M11.81315,9.63615482 L2.63080149,0.333945507 C2.41842498,0.118622883 2.13492078,0 1.83262815,0 C1.53033551,0 1.24683131,0.118622883 1.0344548,0.333945507 L0.358238583,1.0188312 C-0.0817800559,1.46511156 -0.0817800559,2.1904446 0.358238583,2.63604517 L8.06888164,10.4474809 L0.349683131,18.267584 C0.137306617,18.4829066 0.0200465983,18.7699468 0.0200465983,19.0760211 C0.0200465983,19.3824352 0.137306617,19.6694754 0.349683131,19.8849679 L1.02589935,20.5696837 C1.23844362,20.7850063 1.52178006,20.9036292 1.82407269,20.9036292 C2.12636533,20.9036292 2.40986952,20.7850063 2.62224604,20.5696837 L11.81315,11.258977 C12.0260298,11.0429746 12.1429543,10.7545749 12.1422833,10.4479908 C12.1429543,10.1402171 12.0260298,9.85198728 11.81315,9.63615482 Z" id="Shape"></path>
            </g>
        </g>
    </g>
</svg>