<?xml version="1.0" encoding="UTF-8"?>
<svg width="37px" height="30px" viewBox="0 0 37 30" version="1.1" xmlns="http://www.w3.org/2000/svg" xmlns:xlink="http://www.w3.org/1999/xlink">
    <!-- Generator: Sketch 47.1 (45422) - http://www.bohemiancoding.com/sketch -->
    <title>contact</title>
    <desc>Created with Sketch.</desc>
    <defs></defs>
    <g id="Page-1" stroke="none" stroke-width="1" fill="none" fill-rule="evenodd">
        <g id="home" transform="translate(-378.000000, -735.000000)">
            <g id="contact" transform="translate(378.000000, 727.000000)">
                <g id="Group-2" transform="translate(0.000000, 8.000000)" fill-rule="nonzero" fill="#9B9B9B">
                    <g id="chat-speech-bubbles">
                        <path d="M14.5882353,4.487 C6.53104072,4.487 0,9.44257143 0,15.5584286 C0,18.5565714 1.57328507,21.2823571 4.12734842,23.2752143 C3.97922172,25.3079286 3.48322172,27.7945714 2.04684163,29.1342143 C4.90613575,29.1342143 7.82827149,27.3672143 9.67536652,25.9855 C11.2104977,26.4017857 12.8623348,26.6298571 14.5882353,26.6298571 C22.6454299,26.6298571 29.1764706,21.6765 29.1764706,15.5584286 C29.1764706,9.44257143 22.6454299,4.487 14.5882353,4.487 Z" id="Shape"></path>
                        <path d="M33.9793665,16.6367857 C35.2070226,15.0181429 35.9095023,13.136 35.9095023,11.1298571 C35.9095023,5.014 29.3784615,0.0584285714 21.321267,0.0584285714 C17.7752036,0.0584285714 14.5253937,1.01942857 11.9982624,2.61371429 C13.1877647,2.39228571 14.4311312,2.27271429 15.7104072,2.27271429 C24.3870407,2.27271429 31.4208145,7.7265 31.4208145,14.4512857 C31.4208145,17.1017857 30.3323077,19.5574286 28.4762353,21.5525 C30.3188416,22.9342143 33.2454661,24.7056429 36.1047602,24.7056429 C34.0713846,22.8013571 33.9255023,18.5809286 33.9793665,16.6367857 Z" id="Shape"></path>
                    </g>
                </g>
                <text id="…" font-family=".SFNSDisplay, .SF NS Display" font-size="26" font-weight="normal" fill="#0F0F0F">
                    <tspan x="5" y="25">…</tspan>
                </text>
            </g>
        </g>
    </g>
</svg>